# xmcd CD database file
#
# Track frame offsets:
#	182
#	8340
#	30257
#	55347
#	112935
#	128852
#	155275
#	188030
#	228010
#	240645
#	285572
#
# Disc length: 4249 seconds
#
# Revision: 0
# Processed by: cddbd v1.5.2PL0 Copyright (c) Steve Scherf et al.
# Submitted via: CDex 1.79
#
DISCID=7610970b
DTITLE=Miles Davis - Live Around the World
DYEAR=1996
DGENRE=Jazz
TTITLE0=In a Silent Way
TTITLE1=Intruder
TTITLE2=New Blues
TTITLE3=Human Nature
TTITLE4=Mr. Pastorius
TTITLE5=Amandla
TTITLE6=Wrinkle
TTITLE7=Tutu
TTITLE8=Full Nelson
TTITLE9=Time After Time
TTITLE10=Hannibal
EXTD=YEAR: 1996
EXTT0=
EXTT1=
EXTT2=
EXTT3=
EXTT4=
EXTT5=
EXTT6=
EXTT7=
EXTT8=
EXTT9=
EXTT10=
PLAYORDER=
